<svg xmlns="http://www.w3.org/2000/svg" width="17.499" height="17.5" viewBox="0 0 17.499 17.5"><defs><style>.a{fill:#717d7c;}</style></defs><g transform="translate(-0.011)"><g transform="translate(5.635)"><path class="a" d="M163.589,0h-8.125a1.875,1.875,0,0,0-1.875,1.875v3.75a.625.625,0,1,0,1.25,0V1.875a.625.625,0,0,1,.625-.625h8.125a.625.625,0,0,1,.625.625v13.75a.625.625,0,0,1-.625.625h-8.125a.625.625,0,0,1-.625-.625v-3.75a.625.625,0,1,0-1.25,0v3.75a1.875,1.875,0,0,0,1.875,1.875h8.125a1.875,1.875,0,0,0,1.875-1.875V1.875A1.875,1.875,0,0,0,163.589,0Z" transform="translate(-153.589 0)"/></g><g transform="translate(0.011 5.008)"><g transform="translate(0)"><path class="a" d="M12.51,139.861H2.144L4.2,137.8a.625.625,0,0,0-.884-.884L.193,140.044a.618.618,0,0,0-.135.2.627.627,0,0,0,.136.681l3.125,3.125a.625.625,0,0,0,.9-.868L4.2,143.17l-2.059-2.059H12.51a.625.625,0,1,0,0-1.25Z" transform="translate(-0.011 -136.744)"/></g></g></g></svg>