<svg xmlns="http://www.w3.org/2000/svg" width="18.052" height="14.35" viewBox="0 0 18.052 14.35"><defs><style>.a{fill:#717d7c;}</style></defs><g transform="translate(0 -52.499)"><g transform="translate(0 52.499)"><g transform="translate(0 0)"><path class="a" d="M204.459,123.7a.705.705,0,0,0-.9-.084c-1.055.719-6.348,4.336-6.916,4.9a2.116,2.116,0,0,0,2.992,2.992c.569-.569,4.185-5.861,4.9-6.916A.705.705,0,0,0,204.459,123.7Zm-5.818,6.815a.705.705,0,0,1-1-1c.221-.218,1.724-1.29,3.572-2.575C199.932,128.8,198.86,130.3,198.642,130.52Z" transform="translate(-189.117 -120.995)"/><path class="a" d="M3.252,64.8l-.871.425a7.58,7.58,0,0,1-.475-6.408l1,.478a.705.705,0,1,0,.61-1.272l-.985-.472a7.626,7.626,0,0,1,5.792-3.614V55a.705.705,0,0,0,1.41,0V53.941a7.529,7.529,0,0,1,2.425.639.705.705,0,1,0,.58-1.285A9.019,9.019,0,0,0,1.529,66.536a.705.705,0,0,0,.9.242l1.446-.705A.705.705,0,1,0,3.252,64.8Z" transform="translate(0 -52.499)"/><path class="a" d="M393.5,191.909a.705.705,0,1,0-1.285.58,7.591,7.591,0,0,1-.3,6.84L391,198.9a.705.705,0,1,0-.606,1.273l1.481.705a.7.7,0,0,0,.889-.245,9,9,0,0,0,.734-8.721Z" transform="translate(-376.244 -186.593)"/></g></g></g></svg>