<svg xmlns="http://www.w3.org/2000/svg" width="17.093" height="17.093" viewBox="0 0 17.093 17.093"><defs><style>.a{fill:#717d7c;}</style></defs><path class="a" d="M16.691,6.6l-1.314-.286a7.149,7.149,0,0,0-.423-1.02l.727-1.131a.511.511,0,0,0-.068-.637L13.566,1.48a.511.511,0,0,0-.637-.068L11.8,2.139a7.15,7.15,0,0,0-1.02-.423L10.493.4a.511.511,0,0,0-.5-.4H7.1a.511.511,0,0,0-.5.4L6.315,1.716a7.15,7.15,0,0,0-1.02.423L4.164,1.411a.511.511,0,0,0-.637.068L1.48,3.526a.511.511,0,0,0-.068.637l.727,1.131a7.15,7.15,0,0,0-.423,1.02L.4,6.6a.511.511,0,0,0-.4.5V9.993a.511.511,0,0,0,.4.5l1.314.286a7.15,7.15,0,0,0,.423,1.02l-.727,1.131a.511.511,0,0,0,.068.637l2.047,2.047a.511.511,0,0,0,.637.068L5.3,14.954a7.15,7.15,0,0,0,1.02.423L6.6,16.691a.511.511,0,0,0,.5.4H9.994a.511.511,0,0,0,.5-.4l.286-1.314a7.15,7.15,0,0,0,1.02-.423l1.131.727a.511.511,0,0,0,.637-.068l2.047-2.047a.511.511,0,0,0,.068-.637L14.954,11.8a7.15,7.15,0,0,0,.423-1.02l1.314-.286a.511.511,0,0,0,.4-.5V7.1A.511.511,0,0,0,16.691,6.6Zm-5.08,1.946A3.064,3.064,0,1,1,8.546,5.482,3.068,3.068,0,0,1,11.611,8.546Zm0,0" transform="translate(0 0)"/></svg>