<svg xmlns="http://www.w3.org/2000/svg" width="17.5" height="13.75" viewBox="0 0 17.5 13.75"><defs><style>.a{fill:#717d7c;}</style></defs><g transform="translate(0 -51.198)"><g transform="translate(0 51.198)"><path class="a" d="M17.317,55.756l-4.375-4.375a.625.625,0,0,0-1.067.442V53.7H7.5a.625.625,0,0,0,0,1.25h5a.625.625,0,0,0,.625-.625v-.991L15.991,56.2l-2.866,2.866v-.991a.625.625,0,0,0-.625-.625H5.625V55.573a.625.625,0,0,0-1.067-.442L.183,59.506a.625.625,0,0,0,0,.884l4.375,4.375A.625.625,0,0,0,5,64.948a.617.617,0,0,0,.239-.047.625.625,0,0,0,.386-.578V62.448H10a.625.625,0,0,0,0-1.25H5a.625.625,0,0,0-.625.625v.991L1.508,59.948l2.866-2.866v.991A.625.625,0,0,0,5,58.7h6.875v1.875a.625.625,0,0,0,1.067.442l4.375-4.375A.625.625,0,0,0,17.317,55.756Z" transform="translate(0 -51.198)"/></g></g></svg>